<svg version="1.1" id="Layer_1" xmlns="http://www.w3.org/2000/svg" xmlns:xlink="http://www.w3.org/1999/xlink" x="0px" y="0px"
	 width="100%" viewBox="0 0 612 408" enable-background="new 0 0 612 408" xml:space="preserve">
<path fill="#000000" opacity="1.000000" stroke="none" 
	d="
M439.000000,409.000000 
	C292.702393,409.000000 146.904770,409.000000 1.053575,409.000000 
	C1.053575,273.069031 1.053575,137.138062 1.053575,1.103538 
	C204.880951,1.103538 408.761993,1.103538 612.821533,1.103538 
	C612.821533,136.999802 612.821533,272.999878 612.821533,409.000000 
	C555.138000,409.000000 497.319000,409.000000 439.000000,409.000000 
M385.297821,230.181198 
	C384.500214,231.423660 383.702606,232.666107 382.973602,233.980042 
	C382.973602,233.980042 382.889740,233.927231 382.288422,234.178436 
	C381.219818,235.786896 380.151215,237.395355 378.976349,239.709564 
	C375.647980,244.385986 372.319580,249.062408 368.365723,253.857742 
	C368.205383,254.235062 368.045074,254.612396 367.954071,254.947525 
	C367.954071,254.947525 367.910065,254.879333 367.145935,254.885910 
	C362.975220,253.490616 358.833252,252.001007 354.627747,250.719940 
	C346.271973,248.174637 340.710815,249.657745 338.036377,255.000504 
	C338.036377,255.000504 338.022522,254.933243 337.628998,255.483368 
	C337.294495,256.317566 336.960022,257.151733 336.120911,258.418213 
	C332.731232,264.571442 329.341553,270.724670 325.476776,277.108673 
	C324.932037,278.066132 324.387299,279.023621 323.956818,279.969849 
	C323.956818,279.969849 323.943512,279.855804 323.270966,280.090576 
	C320.298553,284.724487 317.465576,289.455780 314.315155,293.965332 
	C311.053986,298.633362 307.102264,302.543488 301.024139,302.740845 
	C300.018372,301.158966 299.012604,299.577057 297.789490,297.628357 
	C297.656525,297.759338 297.523590,297.890289 297.390625,298.021271 
	C297.616272,297.972748 297.841949,297.924225 297.633484,298.404877 
	C296.982513,300.259552 296.331543,302.114227 294.847443,303.955505 
	C291.301910,303.369629 287.716553,302.955872 284.222321,302.148102 
	C280.904236,301.381042 278.377411,299.923828 279.854095,295.578400 
	C280.172241,294.642273 279.028076,292.350464 278.083862,292.014587 
	C275.792267,291.199310 272.697662,290.134857 270.883667,291.055847 
	C267.978058,292.531097 268.321625,295.938843 269.222626,299.684692 
	C271.180420,304.429535 273.138214,309.174408 275.324768,314.561157 
	C277.888641,318.360992 281.432495,320.186798 286.658600,320.172241 
	C291.204071,323.143372 295.598969,326.396118 300.369568,328.945984 
	C302.260345,329.956604 306.305206,330.416840 307.094299,329.386047 
	C309.986847,325.607605 311.923004,321.097015 314.639435,316.286926 
	C315.799866,314.543457 316.960297,312.800018 318.719421,310.801575 
	C322.496582,306.913788 326.137695,302.877350 330.128876,299.223358 
	C331.428528,298.033478 333.641998,297.841705 335.268738,297.913239 
	C330.869934,304.277130 326.471161,310.641052 321.736847,317.605774 
	C320.900574,318.410095 319.906464,319.103546 319.251862,320.035461 
	C310.462616,332.547699 301.720734,345.093201 292.893616,357.735626 
	C294.785309,358.550140 296.416260,359.252380 298.477325,360.139801 
	C318.054504,333.114319 337.537323,306.219055 357.677063,279.656555 
	C361.088501,282.778290 364.499908,285.900024 367.995789,289.727905 
	C367.812225,292.119019 368.104492,294.670349 367.362762,296.873535 
	C364.153687,306.405243 360.210297,315.588837 352.426422,322.760559 
	C348.677826,323.807770 344.929260,324.854950 340.778931,325.551941 
	C340.335480,325.406769 339.854553,325.328491 339.455200,325.104645 
	C337.861298,324.211212 336.249115,321.252747 334.505249,324.087769 
	C333.356812,325.954834 332.767029,329.096436 333.557800,330.984314 
	C334.496796,333.226044 337.185425,334.734924 339.478577,337.184937 
	C344.287659,339.912659 348.972260,342.897736 353.938751,345.299988 
	C359.573334,348.025391 360.070984,347.645508 362.950623,341.178894 
	C364.632477,334.793091 366.314331,328.407318 368.570526,321.677277 
	C373.819733,313.617462 379.385071,305.739349 384.171356,297.413422 
	C386.251923,293.794250 388.485626,292.639465 392.401550,292.718781 
	C407.518463,293.024902 422.641357,293.200104 437.759888,293.100769 
	C440.192230,293.084808 442.613708,291.423157 445.673187,290.168579 
	C448.721527,287.221588 451.916107,284.409668 454.788086,281.299805 
	C460.955658,274.621399 466.956909,267.789368 473.199493,260.996399 
	C473.199493,260.996399 473.203430,260.822632 473.702454,260.220795 
	C475.391144,255.773605 477.079834,251.326431 478.875641,246.072952 
	C482.008698,234.702026 477.970154,229.339737 466.582947,229.917664 
	C464.540192,230.021347 462.530670,230.905701 460.494385,230.954788 
	C459.608887,230.976120 458.694427,229.796783 457.875183,228.279053 
	C457.875183,224.427261 457.875183,220.575485 457.875183,216.131409 
	C456.981964,216.058807 455.789551,215.961868 453.746338,215.525314 
	C453.473236,215.661911 453.200165,215.798508 453.001007,216.064224 
	C453.001007,216.064224 453.135437,216.000443 453.423767,215.266281 
	C457.063416,207.736603 454.472473,203.817474 447.000854,203.006378 
	C446.309387,202.931320 445.670227,202.374115 445.397003,201.486359 
	C446.891602,199.678955 448.386200,197.871552 450.042480,195.868591 
	C444.416534,194.721527 442.632294,195.840179 440.533295,201.535873 
	C436.326263,206.139511 431.717499,210.447784 428.044403,215.443954 
	C425.302948,219.172913 424.915344,224.874466 418.568787,225.026199 
	C418.064026,225.038269 417.509155,225.763351 417.093201,226.254944 
	C410.881165,233.596451 404.688568,240.954468 398.206146,248.647125 
	C396.433105,247.177460 395.098877,246.071503 393.567688,244.802322 
	C397.179932,241.296829 395.639587,237.989609 393.819733,233.928284 
	C394.870972,231.250519 395.713226,228.465820 397.017365,225.917480 
	C399.637299,220.798080 402.509247,215.807663 405.201447,210.902039 
	C406.976166,209.448242 409.112366,208.169205 410.612579,206.362152 
	C413.028778,203.451736 415.025421,200.193008 417.770172,196.762436 
	C419.184753,194.911743 420.626801,193.081345 422.009583,191.207184 
	C435.252655,173.258102 448.374390,155.218277 461.745331,137.365036 
	C487.786469,102.594116 513.978516,67.936249 540.026428,33.170372 
	C540.828552,32.099850 540.726990,30.352337 540.825256,28.302362 
	C539.459045,27.189320 538.092834,26.076277 536.402344,24.699076 
	C530.492432,32.607018 524.815491,40.102219 519.276794,47.698254 
	C518.151367,49.241737 517.546875,51.165062 516.214478,53.283680 
	C513.902283,56.441444 511.492981,59.533623 509.303253,62.774143 
	C506.772247,66.519714 504.434601,70.395927 501.343262,74.265251 
	C496.180237,80.892021 490.922974,87.448257 485.891327,94.173279 
	C483.089752,97.917740 480.663788,101.943237 477.472870,106.187065 
	C475.469635,109.128662 473.466431,112.070251 471.000000,115.553391 
	C464.310791,124.189125 457.486969,132.724701 450.966553,141.486053 
	C442.900909,152.323700 435.093323,163.353348 427.162384,174.291412 
	C420.932617,182.883286 414.716766,191.485596 408.431091,200.036499 
	C405.388184,204.176025 402.150116,208.171829 399.095154,212.302795 
	C397.296661,214.734726 395.683960,217.304031 393.335663,220.068588 
	C391.854492,222.010849 390.373322,223.953125 388.979675,225.981445 
	C388.979675,225.981445 388.878967,225.911362 388.265259,226.117233 
	C387.477264,227.376465 386.689270,228.635696 385.955780,229.948898 
	C385.955780,229.948898 385.883148,229.924438 385.297821,230.181198 
M271.034363,395.434418 
	C277.887787,388.493378 282.949402,380.531769 285.192474,370.951813 
	C283.414459,372.706818 282.528137,375.407227 280.670013,376.625763 
	C274.738586,380.515625 271.821869,386.508362 268.733582,392.395416 
	C268.400330,393.030762 269.792694,394.571320 271.034363,395.434418 
M458.324219,199.380081 
	C460.615723,199.090897 462.907257,198.801712 465.198761,198.512527 
	C461.229156,195.668365 458.471191,189.636581 452.849823,194.658401 
	C454.555511,196.153687 456.146454,197.548355 458.324219,199.380081 
z"/>
<path fill="#A27A5B" opacity="1.000000" stroke="none" 
	d="
M367.996216,322.021515 
	C366.314331,328.407318 364.632477,334.793091 362.539490,341.375610 
	C359.854950,338.968628 357.254120,337.374115 353.721588,338.482819 
	C353.803375,337.440033 353.828339,336.740509 354.175873,335.899048 
	C355.632690,335.551208 356.766968,335.345306 358.064392,335.334839 
	C358.753204,335.621552 359.278809,335.712891 359.804443,335.804199 
	C359.835846,335.607849 359.867218,335.411469 359.898621,335.215088 
	C359.286957,335.121613 358.675323,335.028137 357.848145,334.707245 
	C357.032898,334.297150 356.433197,334.114471 355.888245,333.580231 
	C354.869171,329.727539 353.795288,326.226410 352.721405,322.725281 
	C360.210297,315.588837 364.153687,306.405243 367.362762,296.873535 
	C368.104492,294.670349 367.812225,292.119019 368.252197,289.255981 
	C370.686646,284.117126 372.864624,279.450134 375.146576,274.560364 
	C373.655487,274.042725 372.711243,273.797913 371.837494,273.398773 
	C362.684326,269.217529 362.685638,269.209656 357.634735,277.974426 
	C357.389099,278.400726 357.223175,278.872986 357.020142,279.323822 
	C337.537323,306.219055 318.054504,333.114319 298.477325,360.139801 
	C296.416260,359.252380 294.785309,358.550140 292.893616,357.735626 
	C301.720734,345.093201 310.462616,332.547699 319.251862,320.035461 
	C319.906464,319.103546 320.900574,318.410095 322.284363,317.369934 
	C324.329620,316.556702 326.387787,316.414856 327.231445,315.329224 
	C331.681702,309.602539 335.863007,303.663757 340.000610,297.703430 
	C340.309875,297.257996 339.545593,296.067322 339.353455,294.889709 
	C341.897980,290.819794 344.369385,287.083252 346.799774,283.408752 
	C342.814880,283.792755 339.748871,283.695465 336.929626,284.482330 
	C334.614380,285.128510 331.976868,286.344360 330.563629,288.152771 
	C327.225555,292.424286 324.625854,297.265472 321.496124,301.713470 
	C320.889313,302.575928 319.231384,302.698792 318.070892,302.774261 
	C318.934631,300.067261 319.907593,297.785095 320.611786,295.422852 
	C322.130981,290.326874 325.972900,285.712189 323.943512,279.855804 
	C323.943512,279.855804 323.956818,279.969849 324.239960,279.883667 
	C324.999359,278.824310 325.475616,277.851105 325.951843,276.877899 
	C329.341553,270.724670 332.731232,264.571442 336.566437,257.921631 
	C337.348816,256.594452 337.685669,255.763840 338.022522,254.933243 
	C338.022522,254.933243 338.036377,255.000504 338.372803,254.964310 
	C341.832306,253.557785 344.948120,251.222122 347.695648,255.740387 
	C348.130829,256.456116 350.071655,256.222961 351.301727,256.494720 
	C355.468048,257.415100 360.352875,256.786835 362.450684,261.916016 
	C361.724243,262.995331 361.229584,263.873718 360.549988,264.908569 
	C360.148529,265.310791 359.984070,265.587524 359.727356,266.000122 
	C359.794769,266.147491 360.006592,266.189972 360.423920,266.104919 
	C360.869110,265.752777 361.048126,265.487305 361.424255,265.011292 
	C362.240936,263.993347 362.799896,263.145081 363.609985,262.073425 
	C365.210785,259.526489 366.560425,257.202911 367.910065,254.879333 
	C367.910065,254.879333 367.954071,254.947525 368.159363,254.816162 
	C368.573486,254.369476 368.782349,254.054138 368.991211,253.738800 
	C372.319580,249.062408 375.647980,244.385986 379.400543,239.374481 
	C380.846405,237.335342 381.868073,235.631287 382.889740,233.927231 
	C382.889740,233.927231 382.973602,233.980042 383.309692,234.081665 
	C384.391571,232.763672 385.137329,231.344055 385.883118,229.924438 
	C385.883148,229.924438 385.955780,229.948898 386.290222,230.085419 
	C387.376099,228.785080 388.127533,227.348221 388.878967,225.911362 
	C388.878967,225.911362 388.979675,225.981445 389.281067,226.060532 
	C391.050873,224.030258 392.519287,221.920898 393.987701,219.811554 
	C395.683960,217.304031 397.296661,214.734726 399.095154,212.302795 
	C402.150116,208.171829 405.388184,204.176025 408.431091,200.036499 
	C414.716766,191.485596 420.932617,182.883286 427.162384,174.291412 
	C435.093323,163.353348 442.900909,152.323700 450.966553,141.486053 
	C457.486969,132.724701 464.310791,124.189125 471.442169,115.288239 
	C472.148163,115.148376 472.647400,115.302208 472.636261,115.394188 
	C472.578796,115.868469 472.502167,116.408516 472.231537,116.779022 
	C463.795685,128.327850 455.325043,139.851242 446.883728,151.396118 
	C437.169769,164.681580 427.408905,177.934235 417.882965,191.353409 
	C416.905365,192.730545 417.392059,195.147156 417.199310,197.081436 
	C415.025421,200.193008 413.028778,203.451736 410.612579,206.362152 
	C409.112366,208.169205 406.976166,209.448242 405.201447,210.902039 
	C402.509247,215.807663 399.637299,220.798080 397.017365,225.917480 
	C395.713226,228.465820 394.870972,231.250519 393.456787,234.337753 
	C388.476593,235.256882 384.945404,236.918579 384.633209,242.319305 
	C384.597198,242.942276 383.647339,243.512421 382.742767,244.096436 
	C379.286072,244.219589 378.239105,245.435501 380.127686,248.485901 
	C379.843597,249.172516 379.588165,249.603760 378.975586,249.983780 
	C377.725830,250.369476 376.833252,250.806412 375.940643,251.243347 
	C376.634369,251.512451 377.328064,251.781540 377.990601,252.326691 
	C377.630524,253.048096 377.301666,253.493454 376.931183,253.994446 
	C376.889557,254.050079 376.992584,254.057281 377.383911,254.094391 
	C386.768005,248.565002 395.422424,252.658524 403.531067,255.968597 
	C408.971497,258.189514 413.422119,262.835175 418.509674,266.537170 
	C423.907745,262.481415 429.877167,260.735229 435.728821,265.281860 
	C437.220093,266.440552 437.027832,269.765930 437.476929,272.214172 
	C437.188843,272.517303 437.086090,272.727966 437.038086,272.998108 
	C437.039734,273.031647 436.972626,273.033813 436.655548,273.008423 
	C435.275116,272.602051 434.211792,272.221069 432.355133,271.555817 
	C432.780884,274.343536 433.412262,276.691498 433.406403,279.037903 
	C433.402191,280.733002 432.551086,282.425995 432.039795,284.077728 
	C432.001892,284.035522 431.915283,283.962311 431.917053,283.555908 
	C431.599426,280.801147 431.279968,278.452820 430.834259,275.176086 
	C429.410828,276.493103 428.830292,277.030243 428.247803,277.569183 
	C421.325623,269.141083 416.707916,267.485443 412.526306,272.620300 
	C412.148956,269.767883 411.836365,267.404968 411.344055,264.722717 
	C409.865540,265.131958 408.566711,265.860504 407.859467,266.257263 
	C406.509796,265.497986 405.161255,264.739380 403.664001,263.983246 
	C403.515259,263.985718 403.218292,263.967896 402.902893,263.865784 
	C402.062439,262.840942 401.537354,261.918213 400.947510,260.644714 
	C398.057312,258.888153 394.661194,255.766235 392.537781,256.472229 
	C389.213593,257.577423 386.749908,261.270752 383.495941,263.875763 
	C382.244080,263.874023 381.284576,263.587555 380.618011,263.908813 
	C378.935760,264.719635 375.903992,266.438965 376.008148,266.682037 
	C377.240997,269.558716 372.792511,274.541931 378.972473,275.832764 
	C377.908875,278.397858 376.792114,280.593567 376.006592,282.902008 
	C375.527374,284.310425 375.872375,286.024139 375.306305,287.373932 
	C372.522278,294.012360 369.557220,300.574890 366.655823,307.164093 
	C366.254364,308.075836 365.890106,309.006409 365.442963,309.895233 
	C362.679871,315.387482 363.177826,317.784302 367.996216,322.021515 
M356.418488,267.863861 
	C352.373169,265.935028 348.568451,262.749817 343.253906,265.214142 
	C343.974396,266.649719 344.535614,267.767914 344.538361,269.314392 
	C342.220856,270.607758 339.561584,271.545319 337.710297,273.323914 
	C336.544189,274.444244 336.243683,276.824951 336.250793,278.637543 
	C336.253815,279.407837 338.134521,280.898865 338.992371,280.785034 
	C340.738495,280.553345 342.565735,279.716644 343.998352,278.645966 
	C345.798309,277.300751 347.236328,275.471191 349.171021,274.436768 
	C350.827209,274.360809 352.901520,274.874573 354.039520,274.067719 
	C355.660858,272.918213 356.595154,270.799744 358.184265,268.820465 
	C357.830811,268.584930 357.477325,268.349365 356.418488,267.863861 
M357.717316,261.398895 
	C355.939148,258.636322 353.810577,258.378906 350.596954,260.781952 
	C353.064880,262.579834 354.609253,265.339905 357.717316,261.398895 
M372.145599,264.039795 
	C373.417633,263.097748 374.689667,262.155731 375.961670,261.213684 
	C375.209808,260.533966 374.457916,259.854279 373.706055,259.174561 
	C373.037933,260.607330 372.369812,262.040131 372.145599,264.039795 
z"/>
<path fill="#C4AF9F" opacity="1.000000" stroke="none" 
	d="
M383.121185,244.107056 
	C383.647339,243.512421 384.597198,242.942276 384.633209,242.319305 
	C384.945404,236.918579 388.476593,235.256882 393.465881,234.716919 
	C395.639587,237.989609 397.179932,241.296829 393.567688,244.802322 
	C395.098877,246.071503 396.433105,247.177460 398.206146,248.647125 
	C404.688568,240.954468 410.881165,233.596451 417.093201,226.254944 
	C417.509155,225.763351 418.064026,225.038269 418.568787,225.026199 
	C424.915344,224.874466 425.302948,219.172913 428.044403,215.443954 
	C431.717499,210.447784 436.326263,206.139511 441.129303,201.312653 
	C442.819122,201.406555 443.912964,201.723663 445.006775,202.040771 
	C445.670227,202.374115 446.309387,202.931320 447.000854,203.006378 
	C454.472473,203.817474 457.063416,207.736603 452.995422,215.576111 
	C451.834167,215.393234 451.101288,214.900528 450.135010,214.250916 
	C450.022156,215.568283 449.928101,216.666336 449.516418,217.814133 
	C448.179932,217.536667 447.161041,217.209457 446.068787,216.574097 
	C445.995392,214.754562 445.995392,213.243179 445.995392,211.100311 
	C443.464172,211.100311 440.651428,210.548248 438.193756,211.246353 
	C435.404816,212.038559 432.623505,213.705521 432.782074,217.706543 
	C431.863525,220.347763 431.242035,222.825928 430.564697,225.526764 
	C431.434235,225.526764 431.965912,225.680359 432.342896,225.503769 
	C438.261047,222.731415 439.428009,223.123871 442.951630,228.126236 
	C443.696625,229.183853 445.572266,229.445068 446.943665,230.437424 
	C447.658752,231.959564 448.775970,234.190887 448.989868,234.107407 
	C450.874878,233.371811 452.602173,232.229492 454.370087,231.197235 
	C455.516327,230.527985 456.652466,229.841507 457.793152,229.162750 
	C458.694427,229.796783 459.608887,230.976120 460.494385,230.954788 
	C462.530670,230.905701 464.540192,230.021347 466.582947,229.917664 
	C477.970154,229.339737 482.008698,234.702026 478.659180,246.195404 
	C476.816589,244.861053 475.190430,243.404221 473.564270,241.947418 
	C472.680176,243.127197 471.796112,244.306961 470.587708,245.414307 
	C469.821075,245.355637 469.378815,245.369415 468.608276,245.239807 
	C464.998962,244.273392 461.717865,243.450363 458.175751,242.471680 
	C457.359558,242.069229 456.804352,241.822464 456.015625,241.315735 
	C451.171082,239.318802 446.560089,237.581802 441.609985,235.717056 
	C441.128113,238.180878 440.869690,239.502136 440.547882,241.147598 
	C435.859192,239.120728 432.946869,240.773483 431.157959,245.176849 
	C431.941895,247.061295 432.669617,248.585892 433.304688,250.340363 
	C433.501038,251.102097 433.790039,251.633972 434.175873,252.572906 
	C434.563293,254.344040 434.853882,255.708145 434.788971,257.013306 
	C431.915344,256.361206 429.487396,255.963882 428.744659,259.999023 
	C431.534851,260.800995 434.117126,263.582458 437.368835,259.948303 
	C445.324066,262.204254 452.008636,258.582489 458.894470,256.457825 
	C459.836578,256.167084 460.367950,254.545227 461.504242,253.488892 
	C463.275208,253.310669 464.631409,253.183228 466.046997,253.406464 
	C467.436981,255.622330 468.767548,257.487518 469.726410,259.440491 
	C467.395203,262.196167 465.435699,264.864075 463.368439,267.678650 
	C462.251587,267.199799 460.468933,266.435455 459.920868,266.200470 
	C457.787598,269.355530 456.173920,271.580536 454.746643,273.919281 
	C454.002136,275.139313 453.141510,276.547577 453.105042,277.891754 
	C452.997986,281.839081 451.006805,282.762726 447.478088,281.587952 
	C446.050812,277.541199 444.534729,274.238647 439.536865,275.049133 
	C438.810150,275.166992 437.833557,273.743866 436.972626,273.033813 
	C436.972626,273.033813 437.039734,273.031647 437.216248,272.918823 
	C437.618988,272.616241 437.691101,272.379517 437.609070,272.095825 
	C437.027832,269.765930 437.220093,266.440552 435.728821,265.281860 
	C429.877167,260.735229 423.907745,262.481415 418.509674,266.537170 
	C413.422119,262.835175 408.971497,258.189514 403.531067,255.968597 
	C395.422424,252.658524 386.768005,248.565002 377.383118,254.064087 
	C376.991058,253.996658 376.972839,253.938812 376.972839,253.938812 
	C377.301666,253.493454 377.630524,253.048096 378.076538,252.033615 
	C378.573364,250.987976 378.953003,250.511490 379.332703,250.035004 
	C379.588165,249.603760 379.843597,249.172516 380.336609,248.237762 
	C381.423187,246.525192 382.272186,245.316132 383.121185,244.107056 
M424.570221,242.021866 
	C430.979248,240.991699 429.819061,236.365097 429.458252,231.090942 
	C426.521729,234.816116 424.101318,237.886581 420.912445,240.949066 
	C415.834045,242.796280 410.672424,244.456390 405.746948,246.647430 
	C404.753174,247.089493 403.881287,250.625092 404.264191,250.898529 
	C407.462250,253.182266 410.171204,256.991516 415.759735,255.307831 
	C421.207733,253.778107 422.102600,249.856400 421.761475,244.837814 
	C422.432770,243.930923 423.104065,243.024017 424.570221,242.021866 
M424.363708,258.056549 
	C424.888184,258.274811 425.405945,258.515991 425.947723,258.675507 
	C426.001312,258.691284 426.201904,258.207703 426.334290,257.955872 
	C425.794464,257.896423 425.254639,257.836975 424.363708,258.056549 
M454.534424,260.501465 
	C454.534424,260.501465 454.389832,260.573700 454.534424,260.501465 
z"/>
<path fill="#65503A" opacity="1.000000" stroke="none" 
	d="
M436.655548,273.008423 
	C437.833557,273.743866 438.810150,275.166992 439.536865,275.049133 
	C444.534729,274.238647 446.050812,277.541199 447.259918,281.925781 
	C446.441040,285.266479 445.740631,287.894379 445.040222,290.522247 
	C442.613708,291.423157 440.192230,293.084808 437.759888,293.100769 
	C422.641357,293.200104 407.518463,293.024902 392.401550,292.718781 
	C388.485626,292.639465 386.251923,293.794250 384.171356,297.413422 
	C379.385071,305.739349 373.819733,313.617462 368.283386,321.849396 
	C363.177826,317.784302 362.679871,315.387482 365.442963,309.895233 
	C365.890106,309.006409 366.254364,308.075836 366.655823,307.164093 
	C369.557220,300.574890 372.522278,294.012360 375.306305,287.373932 
	C375.872375,286.024139 375.527374,284.310425 376.006592,282.902008 
	C376.792114,280.593567 377.908875,278.397858 379.384277,275.895996 
	C382.844299,275.473633 384.645905,274.298523 384.276001,271.120361 
	C386.952057,271.646515 389.314880,272.009521 391.677704,272.372528 
	C391.709656,272.030548 391.741608,271.688568 391.773560,271.346558 
	C393.149200,271.866486 394.524811,272.386414 395.900452,272.906311 
	C395.975159,271.570251 395.973480,270.224091 396.148438,268.901306 
	C396.291168,267.822266 396.644989,266.771179 396.994537,265.342621 
	C400.308685,267.286713 396.748383,273.750458 402.024170,272.624298 
	C402.476288,269.346710 402.847290,266.657288 403.218262,263.967896 
	C403.218292,263.967896 403.515259,263.985718 403.631897,264.373627 
	C404.367493,268.098602 404.986420,271.435669 405.733978,275.466064 
	C406.523041,274.677765 408.189484,273.587097 409.018829,272.045929 
	C410.180511,269.887115 410.718811,267.392853 411.523804,265.042053 
	C411.836365,267.404968 412.148956,269.767883 412.526306,272.620300 
	C416.707916,267.485443 421.325623,269.141083 428.247803,277.569183 
	C428.830292,277.030243 429.410828,276.493103 430.834259,275.176086 
	C431.279968,278.452820 431.599426,280.801147 431.805023,283.611511 
	C431.691193,284.073547 431.745605,284.456482 431.745605,284.456482 
	C431.745605,284.456482 432.077667,284.119934 432.077667,284.119934 
	C432.551086,282.425995 433.402191,280.733002 433.406403,279.037903 
	C433.412262,276.691498 432.780884,274.343536 432.355133,271.555817 
	C434.211792,272.221069 435.275116,272.602051 436.655548,273.008423 
M406.817902,283.047974 
	C406.817902,283.047974 406.821472,283.144470 406.727570,283.878510 
	C407.554382,284.169708 408.381226,284.460938 409.766266,284.411926 
	C411.159149,282.527100 412.371490,280.651031 408.656891,278.924500 
	C408.269592,279.911407 407.882324,280.898315 407.477264,281.930634 
	C407.477264,281.930634 407.514160,281.963654 406.846222,281.831207 
	C406.650574,282.120087 406.454895,282.408966 406.259247,282.697845 
	C406.476654,282.806549 406.694061,282.915253 406.817902,283.047974 
z"/>
<path fill="#65503A" opacity="1.000000" stroke="none" 
	d="
M417.484741,196.921936 
	C417.392059,195.147156 416.905365,192.730545 417.882965,191.353409 
	C427.408905,177.934235 437.169769,164.681580 446.883728,151.396118 
	C455.325043,139.851242 463.795685,128.327850 472.231537,116.779022 
	C472.502167,116.408516 472.578796,115.868469 472.636261,115.394188 
	C472.647400,115.302208 472.148163,115.148376 471.673767,115.017456 
	C473.466431,112.070251 475.469635,109.128662 478.082428,105.914764 
	C480.344238,104.290657 482.333130,103.194633 483.588989,101.541656 
	C488.392975,95.218224 493.047760,88.775681 497.573669,82.249596 
	C499.308319,79.748283 500.547821,76.903603 502.012970,74.215393 
	C504.434601,70.395927 506.772247,66.519714 509.303253,62.774143 
	C511.492981,59.533623 513.902283,56.441444 516.840698,53.138012 
	C519.021912,51.948627 520.957703,51.206818 522.065918,49.808914 
	C526.860291,43.761333 531.299072,37.430347 536.142578,31.424503 
	C537.194641,30.119940 539.382202,29.731062 541.046753,28.920443 
	C540.726990,30.352337 540.828552,32.099850 540.026428,33.170372 
	C513.978516,67.936249 487.786469,102.594116 461.745331,137.365036 
	C448.374390,155.218277 435.252655,173.258102 422.009583,191.207184 
	C420.626801,193.081345 419.184753,194.911743 417.484741,196.921936 
z"/>
<path fill="#C4AF9F" opacity="1.000000" stroke="none" 
	d="
M323.607239,279.973206 
	C325.972900,285.712189 322.130981,290.326874 320.611786,295.422852 
	C319.907593,297.785095 318.934631,300.067261 317.825134,302.863281 
	C317.158905,303.668091 316.750977,303.995300 316.109253,304.358826 
	C315.975830,304.891907 316.076202,305.388611 316.284485,306.213165 
	C316.968475,308.046173 317.544586,309.551361 318.120697,311.056549 
	C316.960297,312.800018 315.799866,314.543457 314.090210,316.663483 
	C308.850647,317.640228 307.554993,313.667236 305.283173,310.961914 
	C302.851410,308.066101 300.272888,305.621155 296.547607,309.729767 
	C290.219086,308.378448 284.211182,307.158600 277.903564,305.766754 
	C274.881500,303.357422 272.159210,301.120087 269.436920,298.882782 
	C268.321625,295.938843 267.978058,292.531097 270.883667,291.055847 
	C272.697662,290.134857 275.792267,291.199310 278.083862,292.014587 
	C279.028076,292.350464 280.172241,294.642273 279.854095,295.578400 
	C278.377411,299.923828 280.904236,301.381042 284.222321,302.148102 
	C287.716553,302.955872 291.301910,303.369629 295.668213,303.983582 
	C298.008301,303.798645 299.527649,303.585602 301.046967,303.372559 
	C307.102264,302.543488 311.053986,298.633362 314.315155,293.965332 
	C317.465576,289.455780 320.298553,284.724487 323.607239,279.973206 
z"/>
<path fill="#A27A5B" opacity="1.000000" stroke="none" 
	d="
M296.868286,309.861237 
	C300.272888,305.621155 302.851410,308.066101 305.283173,310.961914 
	C307.554993,313.667236 308.850647,317.640228 313.880127,316.951050 
	C311.923004,321.097015 309.986847,325.607605 307.094299,329.386047 
	C306.305206,330.416840 302.260345,329.956604 300.369568,328.945984 
	C295.598969,326.396118 291.204071,323.143372 286.344482,319.661255 
	C286.080536,318.423737 286.130707,317.697144 286.526428,316.975525 
	C287.951569,317.367767 289.031189,317.755035 290.299133,318.427643 
	C295.910614,321.345428 301.333832,323.977905 306.757019,326.610382 
	C307.091980,326.130829 307.426941,325.651276 307.761902,325.171722 
	C305.549988,323.459961 303.546539,321.299927 301.073486,320.149628 
	C297.965546,318.704041 294.473114,318.085052 291.033447,316.760132 
	C290.558685,314.234955 290.197083,312.059052 290.225342,309.914368 
	C293.182648,310.766754 295.750092,311.587891 298.317505,312.409058 
	C298.431427,312.082764 298.545349,311.756500 298.659241,311.430206 
	C298.062256,310.907227 297.465271,310.384216 296.868286,309.861237 
z"/>
<path fill="#65503A" opacity="1.000000" stroke="none" 
	d="
M316.343079,304.322510 
	C316.750977,303.995300 317.158905,303.668091 317.812561,303.251831 
	C319.231384,302.698792 320.889313,302.575928 321.496124,301.713470 
	C324.625854,297.265472 327.225555,292.424286 330.563629,288.152771 
	C331.976868,286.344360 334.614380,285.128510 336.929626,284.482330 
	C339.748871,283.695465 342.814880,283.792755 346.799774,283.408752 
	C344.369385,287.083252 341.897980,290.819794 339.086060,295.158020 
	C338.378265,295.552094 338.010986,295.344452 337.217957,295.012329 
	C336.246887,295.655548 335.701569,296.423309 335.227020,297.137817 
	C335.297791,297.084625 335.437531,297.193420 335.437531,297.193420 
	C333.641998,297.841705 331.428528,298.033478 330.128876,299.223358 
	C326.137695,302.877350 322.496582,306.913788 318.420044,310.929077 
	C317.544586,309.551361 316.968475,308.046173 316.345978,305.955750 
	C316.314087,305.021179 316.328583,304.671844 316.343079,304.322510 
z"/>
<path fill="#65503A" opacity="1.000000" stroke="none" 
	d="
M357.348602,279.490173 
	C357.223175,278.872986 357.389099,278.400726 357.634735,277.974426 
	C362.685638,269.209656 362.684326,269.217529 371.837494,273.398773 
	C372.711243,273.797913 373.655487,274.042725 375.146576,274.560364 
	C372.864624,279.450134 370.686646,284.117126 368.209961,288.902924 
	C364.499908,285.900024 361.088501,282.778290 357.348602,279.490173 
z"/>
<path fill="#A27A5B" opacity="1.000000" stroke="none" 
	d="
M445.356689,290.345398 
	C445.740631,287.894379 446.441040,285.266479 447.359619,282.300781 
	C451.006805,282.762726 452.997986,281.839081 453.105042,277.891754 
	C453.141510,276.547577 454.002136,275.139313 454.746643,273.919281 
	C456.173920,271.580536 457.787598,269.355530 459.920868,266.200470 
	C460.468933,266.435455 462.251587,267.199799 463.368439,267.678650 
	C465.435699,264.864075 467.395203,262.196167 469.910706,259.561310 
	C471.319916,260.069641 472.173065,260.544952 473.026245,261.020264 
	C466.956909,267.789368 460.955658,274.621399 454.788086,281.299805 
	C451.916107,284.409668 448.721527,287.221588 445.356689,290.345398 
M466.537170,265.440460 
	C466.537170,265.440460 466.578583,265.523285 466.537170,265.440460 
z"/>
<path fill="#C4AF9F" opacity="1.000000" stroke="none" 
	d="
M362.682465,261.715057 
	C360.352875,256.786835 355.468048,257.415100 351.301727,256.494720 
	C350.071655,256.222961 348.130829,256.456116 347.695648,255.740387 
	C344.948120,251.222122 341.832306,253.557785 338.339111,254.970764 
	C340.710815,249.657745 346.271973,248.174637 354.627747,250.719940 
	C358.833252,252.001007 362.975220,253.490616 367.528015,254.882629 
	C366.560425,257.202911 365.210785,259.526489 363.439575,261.928650 
	C363.018005,262.007233 362.682465,261.715057 362.682465,261.715057 
z"/>
<path fill="#65503A" opacity="1.000000" stroke="none" 
	d="
M270.709473,395.563202 
	C269.792694,394.571320 268.400330,393.030762 268.733582,392.395416 
	C271.821869,386.508362 274.738586,380.515625 280.670013,376.625763 
	C282.528137,375.407227 283.414459,372.706818 285.192474,370.951813 
	C282.949402,380.531769 277.887787,388.493378 270.709473,395.563202 
z"/>
<path fill="#A27A5B" opacity="1.000000" stroke="none" 
	d="
M339.115845,336.561401 
	C337.185425,334.734924 334.496796,333.226044 333.557800,330.984314 
	C332.767029,329.096436 333.356812,325.954834 334.505249,324.087769 
	C336.249115,321.252747 337.861298,324.211212 339.455200,325.104645 
	C339.854553,325.328491 340.335480,325.406769 340.687866,325.810608 
	C340.465485,326.640594 340.052948,327.581940 340.244934,327.727844 
	C343.203461,329.976440 346.240631,332.121582 349.259399,334.492798 
	C349.259247,334.694824 349.121490,335.075378 348.860962,335.182251 
	C347.978638,336.472534 347.356842,337.655914 346.798126,338.719269 
	C343.993622,337.931519 341.554749,337.246460 339.115845,336.561401 
z"/>
<path fill="#A27A5B" opacity="1.000000" stroke="none" 
	d="
M457.834167,228.720901 
	C456.652466,229.841507 455.516327,230.527985 454.370087,231.197235 
	C452.602173,232.229492 450.874878,233.371811 448.989868,234.107407 
	C448.775970,234.190887 447.658752,231.959564 447.136780,230.143051 
	C448.707306,225.696930 453.872498,222.720474 449.834015,217.764389 
	C449.928101,216.666336 450.022156,215.568283 450.135010,214.250916 
	C451.101288,214.900528 451.834167,215.393234 452.851257,215.943192 
	C453.135437,216.000443 453.001007,216.064224 453.171997,216.005280 
	C453.761047,215.919189 454.179077,215.892059 454.597137,215.864929 
	C455.789551,215.961868 456.981964,216.058807 457.875183,216.131409 
	C457.875183,220.575485 457.875183,224.427261 457.834167,228.720901 
z"/>
<path fill="#A27A5B" opacity="1.000000" stroke="none" 
	d="
M540.936035,28.611404 
	C539.382202,29.731062 537.194641,30.119940 536.142578,31.424503 
	C531.299072,37.430347 526.860291,43.761333 522.065918,49.808914 
	C520.957703,51.206818 519.021912,51.948627 517.084534,52.952812 
	C517.546875,51.165062 518.151367,49.241737 519.276794,47.698254 
	C524.815491,40.102219 530.492432,32.607018 536.402344,24.699076 
	C538.092834,26.076277 539.459045,27.189320 540.936035,28.611404 
z"/>
<path fill="#C4AF9F" opacity="1.000000" stroke="none" 
	d="
M349.259521,334.290771 
	C346.240631,332.121582 343.203461,329.976440 340.244934,327.727844 
	C340.052948,327.581940 340.465485,326.640594 340.888733,325.985718 
	C344.929260,324.854950 348.677826,323.807770 352.573914,322.742920 
	C353.795288,326.226410 354.869171,329.727539 355.537354,333.640167 
	C353.770050,334.386963 352.408447,334.722260 350.890991,334.845581 
	C350.243256,334.519318 349.751373,334.405029 349.259521,334.290771 
z"/>
<path fill="#65503A" opacity="1.000000" stroke="none" 
	d="
M339.297211,336.873169 
	C341.554749,337.246460 343.993622,337.931519 346.798126,338.719269 
	C347.356842,337.655914 347.978638,336.472534 349.053345,335.377136 
	C350.014679,335.654785 350.523132,335.844421 351.015533,336.017090 
	C350.999451,336.000092 350.966980,335.966461 351.005249,336.275085 
	C351.917267,337.331146 352.791016,338.078613 353.664764,338.826050 
	C357.254120,337.374115 359.854950,338.968628 362.413208,341.736145 
	C360.070984,347.645508 359.573334,348.025391 353.938751,345.299988 
	C348.972260,342.897736 344.287659,339.912659 339.297211,336.873169 
z"/>
<path fill="#65503A" opacity="1.000000" stroke="none" 
	d="
M296.547607,309.729767 
	C297.465271,310.384216 298.062256,310.907227 298.659241,311.430206 
	C298.545349,311.756500 298.431427,312.082764 298.317505,312.409058 
	C295.750092,311.587891 293.182648,310.766754 290.037781,309.618103 
	C287.048279,308.571106 284.636200,307.851562 282.224091,307.132019 
	C281.919281,307.475952 281.614471,307.819885 281.309662,308.163818 
	C282.014130,309.619537 282.656342,311.109802 283.440002,312.521545 
	C284.284546,314.042938 285.261627,315.490692 286.180878,316.970581 
	C286.130707,317.697144 286.080536,318.423737 286.033081,319.514404 
	C281.432495,320.186798 277.888641,318.360992 275.445374,314.049927 
	C278.908569,311.860229 278.560455,308.901062 278.203308,305.938751 
	C284.211182,307.158600 290.219086,308.378448 296.547607,309.729767 
z"/>
<path fill="#A27A5B" opacity="1.000000" stroke="none" 
	d="
M501.678101,74.240326 
	C500.547821,76.903603 499.308319,79.748283 497.573669,82.249596 
	C493.047760,88.775681 488.392975,95.218224 483.588989,101.541656 
	C482.333130,103.194633 480.344238,104.290657 478.380280,105.742279 
	C480.663788,101.943237 483.089752,97.917740 485.891327,94.173279 
	C490.922974,87.448257 496.180237,80.892021 501.678101,74.240326 
z"/>
<path fill="#C4AF9F" opacity="1.000000" stroke="none" 
	d="
M337.643707,295.136810 
	C338.010986,295.344452 338.378265,295.552094 339.012939,295.491425 
	C339.545593,296.067322 340.309875,297.257996 340.000610,297.703430 
	C335.863007,303.663757 331.681702,309.602539 327.231445,315.329224 
	C326.387787,316.414856 324.329620,316.556702 322.452087,317.069519 
	C326.471161,310.641052 330.869934,304.277130 335.353149,297.553345 
	C335.437531,297.193420 335.297791,297.084625 335.591888,297.225098 
	C336.471893,296.622681 337.057800,295.879730 337.643707,295.136810 
z"/>
<path fill="#A27A5B" opacity="1.000000" stroke="none" 
	d="
M277.903564,305.766754 
	C278.560455,308.901062 278.908569,311.860229 275.330994,313.728973 
	C273.138214,309.174408 271.180420,304.429535 269.329773,299.283752 
	C272.159210,301.120087 274.881500,303.357422 277.903564,305.766754 
z"/>
<path fill="#A27A5B" opacity="1.000000" stroke="none" 
	d="
M470.912018,245.486740 
	C471.796112,244.306961 472.680176,243.127197 473.564270,241.947418 
	C475.190430,243.404221 476.816589,244.861053 478.605652,246.598572 
	C477.079834,251.326431 475.391144,255.773605 473.390015,260.026825 
	C472.339569,256.982239 471.601562,254.131638 471.066528,251.006226 
	C471.991058,250.177948 472.712646,249.624466 473.791016,249.009338 
	C476.276703,244.795242 472.539124,246.127579 470.912018,245.486740 
z"/>
<path fill="#65503A" opacity="1.000000" stroke="none" 
	d="
M458.030792,199.161560 
	C456.146454,197.548355 454.555511,196.153687 452.849823,194.658401 
	C458.471191,189.636581 461.229156,195.668365 465.198761,198.512527 
	C462.907257,198.801712 460.615723,199.090897 458.030792,199.161560 
z"/>
<path fill="#65503A" opacity="1.000000" stroke="none" 
	d="
M470.863556,251.281036 
	C471.601562,254.131638 472.339569,256.982239 473.140503,260.327759 
	C473.203430,260.822632 473.199493,260.996399 473.112854,261.008331 
	C472.173065,260.544952 471.319916,260.069641 470.282410,259.473511 
	C468.767548,257.487518 467.436981,255.622330 466.193359,253.081696 
	C467.808044,252.031189 469.335815,251.656113 470.863556,251.281036 
z"/>
<path fill="#65503A" opacity="1.000000" stroke="none" 
	d="
M445.201904,201.763565 
	C443.912964,201.723663 442.819122,201.406555 441.382263,201.060699 
	C442.632294,195.840179 444.416534,194.721527 450.042480,195.868591 
	C448.386200,197.871552 446.891602,199.678955 445.201904,201.763565 
z"/>
<path fill="#A27A5B" opacity="1.000000" stroke="none" 
	d="
M301.035553,303.056702 
	C299.527649,303.585602 298.008301,303.798645 296.084778,303.990295 
	C296.331543,302.114227 296.982513,300.259552 297.836578,298.170776 
	C298.039673,297.936676 298.006805,297.995178 298.006805,297.995178 
	C299.012604,299.577057 300.018372,301.158966 301.035553,303.056702 
z"/>
<path fill="#C4AF9F" opacity="1.000000" stroke="none" 
	d="
M393.661682,219.940063 
	C392.519287,221.920898 391.050873,224.030258 389.237305,226.017517 
	C390.373322,223.953125 391.854492,222.010849 393.661682,219.940063 
z"/>
<path fill="#C4AF9F" opacity="1.000000" stroke="none" 
	d="
M382.589081,234.052826 
	C381.868073,235.631287 380.846405,237.335342 379.453674,239.021606 
	C380.151215,237.395355 381.219818,235.786896 382.589081,234.052826 
z"/>
<path fill="#C4AF9F" opacity="1.000000" stroke="none" 
	d="
M388.572113,226.014297 
	C388.127533,227.348221 387.376099,228.785080 386.262939,230.058441 
	C386.689270,228.635696 387.477264,227.376465 388.572113,226.014297 
z"/>
<path fill="#C4AF9F" opacity="1.000000" stroke="none" 
	d="
M385.590454,230.052811 
	C385.137329,231.344055 384.391571,232.763672 383.275391,234.045929 
	C383.702606,232.666107 384.500214,231.423660 385.590454,230.052811 
z"/>
<path fill="#C4AF9F" opacity="1.000000" stroke="none" 
	d="
M325.714325,276.993286 
	C325.475616,277.851105 324.999359,278.824310 324.182831,279.889282 
	C324.387299,279.023621 324.932037,278.066132 325.714325,276.993286 
z"/>
<path fill="#C4AF9F" opacity="1.000000" stroke="none" 
	d="
M337.825745,255.208313 
	C337.685669,255.763840 337.348816,256.594452 336.818726,257.705505 
	C336.960022,257.151733 337.294495,256.317566 337.825745,255.208313 
z"/>
<path fill="#C4AF9F" opacity="1.000000" stroke="none" 
	d="
M368.678467,253.798279 
	C368.782349,254.054138 368.573486,254.369476 368.124695,254.837265 
	C368.045074,254.612396 368.205383,254.235062 368.678467,253.798279 
z"/>
<path fill="#A27A5B" opacity="1.000000" stroke="none" 
	d="
M298.053650,297.906189 
	C297.841949,297.924225 297.616272,297.972748 297.390625,298.021271 
	C297.523590,297.890289 297.656525,297.759338 297.898132,297.811768 
	C298.006805,297.995178 298.039673,297.936676 298.053650,297.906189 
z"/>
<path fill="#C4AF9F" opacity="1.000000" stroke="none" 
	d="
M454.171753,215.695129 
	C454.179077,215.892059 453.761047,215.919189 453.135010,215.940720 
	C453.200165,215.798508 453.473236,215.661911 454.171753,215.695129 
z"/>
<path fill="#C4AF9F" opacity="1.000000" stroke="none" 
	d="
M402.902893,263.865784 
	C402.847290,266.657288 402.476288,269.346710 402.024170,272.624298 
	C396.748383,273.750458 400.308685,267.286713 396.994537,265.342621 
	C396.644989,266.771179 396.291168,267.822266 396.148438,268.901306 
	C395.973480,270.224091 395.975159,271.570251 395.900452,272.906311 
	C394.524811,272.386414 393.149200,271.866486 391.773560,271.346558 
	C391.741608,271.688568 391.709656,272.030548 391.677704,272.372528 
	C389.314880,272.009521 386.952057,271.646515 384.295898,271.140991 
	C384.002563,270.998474 384.042755,271.039276 383.983215,270.610413 
	C383.947876,268.457825 383.972046,266.734131 383.997620,265.006134 
	C383.998993,265.001862 384.003052,264.997711 384.370972,264.923309 
	C386.155121,264.447327 387.571350,264.045715 389.240662,263.792358 
	C393.565277,266.745483 392.210449,262.602173 393.360168,261.113831 
	C395.025299,261.912231 396.329132,262.800018 397.588959,263.657806 
	C398.719391,262.778687 399.865814,261.887085 401.012238,260.995514 
	C401.537354,261.918213 402.062439,262.840942 402.902893,263.865784 
z"/>
<path fill="#C4AF9F" opacity="1.000000" stroke="none" 
	d="
M348.830505,273.850647 
	C347.236328,275.471191 345.798309,277.300751 343.998352,278.645966 
	C342.565735,279.716644 340.738495,280.553345 338.992371,280.785034 
	C338.134521,280.898865 336.253815,279.407837 336.250793,278.637543 
	C336.243683,276.824951 336.544189,274.444244 337.710297,273.323914 
	C339.561584,271.545319 342.220856,270.607758 345.151733,269.192780 
	C346.786896,270.664337 347.808685,272.257477 348.830505,273.850647 
z"/>
<path fill="#65503A" opacity="1.000000" stroke="none" 
	d="
M349.000763,274.143707 
	C347.808685,272.257477 346.786896,270.664337 345.430969,268.978638 
	C344.535614,267.767914 343.974396,266.649719 343.253906,265.214142 
	C348.568451,262.749817 352.373169,265.935028 356.789062,268.206360 
	C357.306641,268.820953 357.527771,269.003082 357.822968,269.095215 
	C356.595154,270.799744 355.660858,272.918213 354.039520,274.067719 
	C352.901520,274.874573 350.827209,274.360809 349.000763,274.143707 
z"/>
<path fill="#65503A" opacity="1.000000" stroke="none" 
	d="
M400.947510,260.644714 
	C399.865814,261.887085 398.719391,262.778687 397.588959,263.657806 
	C396.329132,262.800018 395.025299,261.912231 393.042511,261.102966 
	C391.238251,262.002350 390.112915,262.823242 388.987610,263.644135 
	C387.571350,264.045715 386.155121,264.447327 384.418793,264.635925 
	C384.039734,264.237885 383.980713,264.052826 383.921692,263.867737 
	C386.749908,261.270752 389.213593,257.577423 392.537781,256.472229 
	C394.661194,255.766235 398.057312,258.888153 400.947510,260.644714 
z"/>
<path fill="#C4AF9F" opacity="1.000000" stroke="none" 
	d="
M383.495972,263.875793 
	C383.980713,264.052826 384.039734,264.237885 384.050903,264.710327 
	C384.003052,264.997711 383.998993,265.001862 383.870331,265.319336 
	C382.916626,267.292725 382.091583,268.948639 381.269684,270.598145 
	C382.148407,270.737946 383.095581,270.888611 384.042755,271.039276 
	C384.042755,271.039276 384.002563,270.998474 383.982666,270.977844 
	C384.645905,274.298523 382.844299,275.473633 379.470825,275.574219 
	C372.792511,274.541931 377.240997,269.558716 376.008148,266.682037 
	C375.903992,266.438965 378.935760,264.719635 380.618011,263.908813 
	C381.284576,263.587555 382.244080,263.874023 383.495972,263.875793 
z"/>
<path fill="#C4AF9F" opacity="1.000000" stroke="none" 
	d="
M411.344055,264.722717 
	C410.718811,267.392853 410.180511,269.887115 409.018829,272.045929 
	C408.189484,273.587097 406.523041,274.677765 405.733978,275.466064 
	C404.986420,271.435669 404.367493,268.098602 403.780640,264.371155 
	C405.161255,264.739380 406.509796,265.497986 407.859467,266.257263 
	C408.566711,265.860504 409.865540,265.131958 411.344055,264.722717 
z"/>
<path fill="#65503A" opacity="1.000000" stroke="none" 
	d="
M357.688232,261.743713 
	C354.609253,265.339905 353.064880,262.579834 350.596954,260.781952 
	C353.810577,258.378906 355.939148,258.636322 357.688232,261.743713 
z"/>
<path fill="#C4AF9F" opacity="1.000000" stroke="none" 
	d="
M371.923645,263.756348 
	C372.369812,262.040131 373.037933,260.607330 373.706055,259.174561 
	C374.457916,259.854279 375.209808,260.533966 375.961670,261.213684 
	C374.689667,262.155731 373.417633,263.097748 371.923645,263.756348 
z"/>
<path fill="#65503A" opacity="1.000000" stroke="none" 
	d="
M382.742767,244.096436 
	C382.272186,245.316132 381.423187,246.525192 380.365234,247.982407 
	C378.239105,245.435501 379.286072,244.219589 382.742767,244.096436 
z"/>
<path fill="#65503A" opacity="1.000000" stroke="none" 
	d="
M351.046875,335.057587 
	C352.408447,334.722260 353.770050,334.386963 355.482544,333.991730 
	C356.433197,334.114471 357.032898,334.297150 357.806641,334.757721 
	C357.980621,335.035614 357.901215,335.139404 357.901215,335.139404 
	C356.766968,335.345306 355.632690,335.551208 353.815125,335.932495 
	C352.410187,336.060730 351.688599,336.013580 350.966980,335.966461 
	C350.966980,335.966461 350.999451,336.000092 350.996582,335.772583 
	C350.993713,335.545074 351.046875,335.057587 351.046875,335.057587 
z"/>
<path fill="#000000" opacity="1.000000" stroke="none" 
	d="
M351.005249,336.275085 
	C351.688599,336.013580 352.410187,336.060730 353.492554,336.074402 
	C353.828339,336.740509 353.803375,337.440033 353.721588,338.482819 
	C352.791016,338.078613 351.917267,337.331146 351.005249,336.275085 
z"/>
<path fill="#65503A" opacity="1.000000" stroke="none" 
	d="
M378.975555,249.983765 
	C378.953003,250.511490 378.573364,250.987976 378.107758,251.757568 
	C377.328064,251.781540 376.634369,251.512451 375.940643,251.243347 
	C376.833252,250.806412 377.725830,250.369476 378.975555,249.983765 
z"/>
<path fill="#C4AF9F" opacity="1.000000" stroke="none" 
	d="
M360.734924,264.752106 
	C361.229584,263.873718 361.724243,262.995331 362.450684,261.916016 
	C362.682465,261.715057 363.018005,262.007233 363.188416,262.152039 
	C362.799896,263.145081 362.240936,263.993347 361.316681,264.903778 
	C360.951355,264.965912 360.734924,264.752106 360.734924,264.752106 
z"/>
<path fill="#65503A" opacity="1.000000" stroke="none" 
	d="
M358.022156,334.985138 
	C358.675323,335.028137 359.286957,335.121613 359.898621,335.215088 
	C359.867218,335.411469 359.835846,335.607849 359.804443,335.804199 
	C359.278809,335.712891 358.753204,335.621552 358.064392,335.334839 
	C357.901215,335.139404 357.980621,335.035614 358.022156,334.985138 
z"/>
<path fill="#C4AF9F" opacity="1.000000" stroke="none" 
	d="
M358.003601,268.957825 
	C357.527771,269.003082 357.306641,268.820953 357.141754,268.331360 
	C357.477325,268.349365 357.830811,268.584930 358.003601,268.957825 
z"/>
<path fill="#65503A" opacity="1.000000" stroke="none" 
	d="
M437.476929,272.214172 
	C437.691101,272.379517 437.618988,272.616241 437.214600,272.885284 
	C437.086090,272.727966 437.188843,272.517303 437.476929,272.214172 
z"/>
<path fill="#65503A" opacity="1.000000" stroke="none" 
	d="
M376.991821,254.026978 
	C376.992584,254.057281 376.889557,254.050079 376.931213,253.994446 
	C376.972839,253.938812 376.991058,253.996658 376.991821,254.026978 
z"/>
<path fill="#C4AF9F" opacity="1.000000" stroke="none" 
	d="
M361.058929,265.073425 
	C361.048126,265.487305 360.869110,265.752777 360.337921,266.019928 
	C360.046387,266.062469 359.871704,265.895233 359.871704,265.895233 
	C359.984070,265.587524 360.148529,265.310791 360.549988,264.908569 
	C360.734924,264.752106 360.951355,264.965912 361.058929,265.073425 
z"/>
<path fill="#C4AF9F" opacity="1.000000" stroke="none" 
	d="
M360.132385,266.147461 
	C360.006592,266.189972 359.794769,266.147491 359.727356,266.000122 
	C359.871704,265.895233 360.046387,266.062469 360.132385,266.147461 
z"/>
<path fill="#65503A" opacity="1.000000" stroke="none" 
	d="
M470.587708,245.414307 
	C472.539124,246.127579 476.276703,244.795242 473.428711,248.838013 
	C470.944885,248.746140 468.864166,248.159531 467.470947,248.887924 
	C461.883240,251.809235 455.990417,251.266998 450.085510,251.129013 
	C448.874084,251.100708 447.658234,251.262131 446.444427,251.336136 
	C446.430389,251.672195 446.416382,252.008255 446.402374,252.344315 
	C451.298065,252.742767 456.193787,253.141205 461.089478,253.539642 
	C460.367950,254.545227 459.836578,256.167084 458.894470,256.457825 
	C452.008636,258.582489 445.324066,262.204254 437.348999,259.645142 
	C436.373505,258.572388 435.758972,257.822327 435.144470,257.072235 
	C434.853882,255.708145 434.563293,254.344040 434.324249,252.344803 
	C434.049622,251.176605 433.723480,250.643539 433.397308,250.110489 
	C432.669617,248.585892 431.941895,247.061295 431.566284,245.151794 
	C440.028656,243.703171 448.138916,242.639420 456.249176,241.575684 
	C456.804352,241.822464 457.359558,242.069229 458.185822,242.837067 
	C461.496185,246.382233 464.741730,248.338806 468.936523,245.383194 
	C469.378815,245.369415 469.821075,245.355637 470.587708,245.414307 
z"/>
<path fill="#A27A5B" opacity="1.000000" stroke="none" 
	d="
M415.002350,255.489975 
	C410.171204,256.991516 407.462250,253.182266 404.264191,250.898529 
	C403.881287,250.625092 404.753174,247.089493 405.746948,246.647430 
	C410.672424,244.456390 415.834045,242.796280 421.492615,241.196060 
	C422.640320,241.667740 423.207855,241.892441 423.775360,242.117126 
	C423.104065,243.024017 422.432770,243.930923 421.106934,244.951141 
	C418.635681,248.539627 416.819031,252.014801 415.002350,255.489975 
z"/>
<path fill="#65503A" opacity="1.000000" stroke="none" 
	d="
M449.516418,217.814133 
	C453.872498,222.720474 448.707306,225.696930 447.120026,229.778854 
	C445.572266,229.445068 443.696625,229.183853 442.951630,228.126236 
	C439.428009,223.123871 438.261047,222.731415 432.342896,225.503769 
	C431.965912,225.680359 431.434235,225.526764 430.564697,225.526764 
	C431.242035,222.825928 431.863525,220.347763 432.976746,217.987366 
	C437.852905,219.354370 442.453857,222.847351 446.142181,216.882233 
	C447.161041,217.209457 448.179932,217.536667 449.516418,217.814133 
z"/>
<path fill="#A27A5B" opacity="1.000000" stroke="none" 
	d="
M446.068787,216.574097 
	C442.453857,222.847351 437.852905,219.354370 433.273804,217.824295 
	C432.623505,213.705521 435.404816,212.038559 438.193756,211.246353 
	C440.651428,210.548248 443.464172,211.100311 445.995392,211.100311 
	C445.995392,213.243179 445.995392,214.754562 446.068787,216.574097 
z"/>
<path fill="#A27A5B" opacity="1.000000" stroke="none" 
	d="
M456.015625,241.315735 
	C448.138916,242.639420 440.028656,243.703171 431.510040,244.791962 
	C432.946869,240.773483 435.859192,239.120728 440.547882,241.147598 
	C440.869690,239.502136 441.128113,238.180878 441.609985,235.717056 
	C446.560089,237.581802 451.171082,239.318802 456.015625,241.315735 
z"/>
<path fill="#000000" opacity="1.000000" stroke="none" 
	d="
M461.504242,253.488876 
	C456.193787,253.141205 451.298065,252.742767 446.402374,252.344315 
	C446.416382,252.008255 446.430389,251.672195 446.444427,251.336136 
	C447.658234,251.262131 448.874084,251.100708 450.085510,251.129013 
	C455.990417,251.266998 461.883240,251.809235 467.470947,248.887924 
	C468.864166,248.159531 470.944885,248.746140 473.071899,248.899658 
	C472.712646,249.624466 471.991058,250.177948 471.066528,251.006241 
	C469.335815,251.656113 467.808044,252.031189 466.133972,252.731018 
	C464.631409,253.183228 463.275208,253.310669 461.504242,253.488876 
z"/>
<path fill="#65503A" opacity="1.000000" stroke="none" 
	d="
M424.172791,242.069504 
	C423.207855,241.892441 422.640320,241.667740 421.876831,241.200043 
	C424.101318,237.886581 426.521729,234.816116 429.458252,231.090942 
	C429.819061,236.365097 430.979248,240.991699 424.172791,242.069504 
z"/>
<path fill="#65503A" opacity="1.000000" stroke="none" 
	d="
M415.381042,255.398895 
	C416.819031,252.014801 418.635681,248.539627 420.818359,245.023315 
	C422.102600,249.856400 421.207733,253.778107 415.381042,255.398895 
z"/>
<path fill="#A27A5B" opacity="1.000000" stroke="none" 
	d="
M434.788971,257.013306 
	C435.758972,257.822327 436.373505,258.572388 437.007874,259.625610 
	C434.117126,263.582458 431.534851,260.800995 428.744659,259.999023 
	C429.487396,255.963882 431.915344,256.361206 434.788971,257.013306 
z"/>
<path fill="#A27A5B" opacity="1.000000" stroke="none" 
	d="
M468.608276,245.239807 
	C464.741730,248.338806 461.496185,246.382233 458.446838,242.992737 
	C461.717865,243.450363 464.998962,244.273392 468.608276,245.239807 
z"/>
<path fill="#A27A5B" opacity="1.000000" stroke="none" 
	d="
M424.539246,257.917053 
	C425.254639,257.836975 425.794464,257.896423 426.334290,257.955872 
	C426.201904,258.207703 426.001312,258.691284 425.947723,258.675507 
	C425.405945,258.515991 424.888184,258.274811 424.539246,257.917053 
z"/>
<path fill="#A27A5B" opacity="1.000000" stroke="none" 
	d="
M433.304688,250.340363 
	C433.723480,250.643539 434.049622,251.176605 434.227417,251.937744 
	C433.790039,251.633972 433.501038,251.102097 433.304688,250.340363 
z"/>
<path fill="#65503A" opacity="1.000000" stroke="none" 
	d="
M454.462128,260.537598 
	C454.389832,260.573700 454.534424,260.501465 454.462128,260.537598 
z"/>
<path fill="#A27A5B" opacity="1.000000" stroke="none" 
	d="
M409.501953,278.973328 
	C412.371490,280.651031 411.159149,282.527100 409.465607,284.171844 
	C409.277283,282.278961 409.389618,280.626129 409.501953,278.973328 
z"/>
<path fill="#C4AF9F" opacity="1.000000" stroke="none" 
	d="
M409.079407,278.948914 
	C409.389618,280.626129 409.277283,282.278961 409.186493,284.341980 
	C408.381226,284.460938 407.554382,284.169708 406.893921,283.300781 
	C407.319000,282.502777 407.463928,282.223511 407.495056,281.885223 
	C407.882324,280.898315 408.269592,279.911407 409.079407,278.948914 
z"/>
<path fill="#A27A5B" opacity="1.000000" stroke="none" 
	d="
M432.039795,284.077728 
	C432.077667,284.119934 431.745605,284.456482 431.745605,284.456482 
	C431.745605,284.456482 431.691193,284.073547 431.803223,284.017944 
	C431.915283,283.962311 432.001892,284.035522 432.039795,284.077728 
z"/>
<path fill="#A27A5B" opacity="1.000000" stroke="none" 
	d="
M407.486145,281.907928 
	C407.463928,282.223511 407.319000,282.502777 406.940857,282.933746 
	C406.821472,283.144470 406.817902,283.047974 407.031372,282.780029 
	C407.334595,282.329285 407.424377,282.146484 407.514160,281.963654 
	C407.514160,281.963654 407.477264,281.930634 407.486145,281.907928 
z"/>
<path fill="#C4AF9F" opacity="1.000000" stroke="none" 
	d="
M407.180176,281.897430 
	C407.424377,282.146484 407.334595,282.329285 407.078156,282.768005 
	C406.694061,282.915253 406.476654,282.806549 406.259247,282.697845 
	C406.454895,282.408966 406.650574,282.120087 407.180176,281.897430 
z"/>
<path fill="#A27A5B" opacity="1.000000" stroke="none" 
	d="
M316.109283,304.358856 
	C316.328583,304.671844 316.314087,305.021179 316.238098,305.627930 
	C316.076202,305.388611 315.975830,304.891907 316.109283,304.358856 
z"/>
<path fill="#000000" opacity="1.000000" stroke="none" 
	d="
M286.526428,316.975525 
	C285.261627,315.490692 284.284546,314.042938 283.440002,312.521545 
	C282.656342,311.109802 282.014130,309.619537 281.309662,308.163818 
	C281.614471,307.819885 281.919281,307.475952 282.224091,307.132019 
	C284.636200,307.851562 287.048279,308.571106 289.647949,309.586914 
	C290.197083,312.059052 290.558685,314.234955 290.918030,316.983856 
	C290.647461,317.752014 290.379150,317.947174 290.110809,318.142334 
	C289.031189,317.755035 287.951569,317.367767 286.526428,316.975525 
z"/>
<path fill="#C4AF9F" opacity="1.000000" stroke="none" 
	d="
M290.299133,318.427643 
	C290.379150,317.947174 290.647461,317.752014 291.031189,317.333130 
	C294.473114,318.085052 297.965546,318.704041 301.073486,320.149628 
	C303.546539,321.299927 305.549988,323.459961 307.761902,325.171722 
	C307.426941,325.651276 307.091980,326.130829 306.757019,326.610382 
	C301.333832,323.977905 295.910614,321.345428 290.299133,318.427643 
z"/>
<path fill="#000000" opacity="1.000000" stroke="none" 
	d="
M337.217957,295.012329 
	C337.057800,295.879730 336.471893,296.622681 335.521118,297.278320 
	C335.701569,296.423309 336.246887,295.655548 337.217957,295.012329 
z"/>
<path fill="#C4AF9F" opacity="1.000000" stroke="none" 
	d="
M466.557861,265.481873 
	C466.578583,265.523285 466.537170,265.440460 466.557861,265.481873 
z"/>
<path fill="#000000" opacity="1.000000" stroke="none" 
	d="
M350.890991,334.845581 
	C351.046875,335.057587 350.993713,335.545074 351.012665,335.789581 
	C350.523132,335.844421 350.014679,335.654785 349.313843,335.270264 
	C349.121490,335.075378 349.259247,334.694824 349.259399,334.492798 
	C349.751373,334.405029 350.243256,334.519318 350.890991,334.845581 
z"/>
<path fill="#A27A5B" opacity="1.000000" stroke="none" 
	d="
M389.240662,263.792358 
	C390.112915,262.823242 391.238251,262.002350 392.681213,261.192322 
	C392.210449,262.602173 393.565277,266.745483 389.240662,263.792358 
z"/>
<path fill="#65503A" opacity="1.000000" stroke="none" 
	d="
M383.983215,270.610413 
	C383.095581,270.888611 382.148407,270.737946 381.269684,270.598145 
	C382.091583,268.948639 382.916626,267.292725 383.868958,265.323608 
	C383.972046,266.734131 383.947876,268.457825 383.983215,270.610413 
z"/>
</svg>